<mxfile host="app.diagrams.net" agent="Mozilla/5.0 (Windows NT 10.0; Win64; x64) AppleWebKit/537.36 (KHTML, like Gecko) Chrome/136.0.0.0 Safari/537.36 Edg/136.0.0.0" version="27.0.6" pages="3">
  <diagram name="UObject的反序列化时序图" id="ty9AjxiSXVpi8jd9Yawi">
    <mxGraphModel dx="2836" dy="1572" grid="1" gridSize="10" guides="1" tooltips="1" connect="1" arrows="1" fold="1" page="1" pageScale="1" pageWidth="827" pageHeight="1169" math="0" shadow="0">
      <root>
        <mxCell id="0" />
        <mxCell id="1" parent="0" />
        <mxCell id="tDlCE4xTZY2SPCMw47_L-1" value="&lt;div&gt;&lt;pre style=&quot;font-family: &amp;quot;JetBrains Mono&amp;quot;, monospace;&quot;&gt;&lt;span&gt;LoadPackageInternal&lt;/span&gt;&lt;/pre&gt;&lt;/div&gt;" style="shape=umlLifeline;perimeter=lifelinePerimeter;whiteSpace=wrap;html=1;container=1;dropTarget=0;collapsible=0;recursiveResize=0;outlineConnect=0;portConstraint=eastwest;newEdgeStyle={&quot;curved&quot;:0,&quot;rounded&quot;:0};fontColor=#000000;labelBackgroundColor=none;fontSize=16;" vertex="1" parent="1">
          <mxGeometry x="70" y="40" width="140" height="1360" as="geometry" />
        </mxCell>
        <mxCell id="tDlCE4xTZY2SPCMw47_L-3" value="&lt;div&gt;&lt;pre style=&quot;font-family: &amp;quot;JetBrains Mono&amp;quot;, monospace;&quot;&gt;LoadPackageInternal&lt;/pre&gt;&lt;/div&gt;" style="html=1;points=[[0,0,0,0,5],[0,1,0,0,-5],[1,0,0,0,5],[1,1,0,0,-5]];perimeter=orthogonalPerimeter;outlineConnect=0;targetShapes=umlLifeline;portConstraint=eastwest;newEdgeStyle={&quot;curved&quot;:0,&quot;rounded&quot;:0};fontColor=#000000;labelBackgroundColor=none;fontSize=16;" vertex="1" parent="tDlCE4xTZY2SPCMw47_L-1">
          <mxGeometry x="65" y="110" width="10" height="1150" as="geometry" />
        </mxCell>
        <mxCell id="tDlCE4xTZY2SPCMw47_L-4" value="dispatch" style="html=1;verticalAlign=bottom;startArrow=oval;endArrow=block;startSize=8;curved=0;rounded=0;entryX=0;entryY=0;entryDx=0;entryDy=5;fontColor=#000000;labelBackgroundColor=none;fontSize=16;" edge="1" target="tDlCE4xTZY2SPCMw47_L-3" parent="tDlCE4xTZY2SPCMw47_L-1">
          <mxGeometry relative="1" as="geometry">
            <mxPoint x="-10" y="115" as="sourcePoint" />
          </mxGeometry>
        </mxCell>
        <mxCell id="tDlCE4xTZY2SPCMw47_L-2" value="Linker" style="shape=umlLifeline;perimeter=lifelinePerimeter;whiteSpace=wrap;html=1;container=1;dropTarget=0;collapsible=0;recursiveResize=0;outlineConnect=0;portConstraint=eastwest;newEdgeStyle={&quot;curved&quot;:0,&quot;rounded&quot;:0};fontColor=#000000;labelBackgroundColor=none;fontSize=16;" vertex="1" parent="1">
          <mxGeometry x="340" y="40" width="100" height="1330" as="geometry" />
        </mxCell>
        <mxCell id="tDlCE4xTZY2SPCMw47_L-5" value="&lt;div&gt;&lt;pre style=&quot;font-family: &amp;quot;JetBrains Mono&amp;quot;, monospace;&quot;&gt;&lt;div&gt;&lt;pre style=&quot;font-family: &amp;quot;JetBrains Mono&amp;quot;, monospace;&quot;&gt;GetPackageLinker&lt;/pre&gt;&lt;/div&gt;&lt;/pre&gt;&lt;/div&gt;" style="html=1;points=[[0,0,0,0,5],[0,1,0,0,-5],[1,0,0,0,5],[1,1,0,0,-5]];perimeter=orthogonalPerimeter;outlineConnect=0;targetShapes=umlLifeline;portConstraint=eastwest;newEdgeStyle={&quot;curved&quot;:0,&quot;rounded&quot;:0};fontColor=#000000;labelBackgroundColor=none;fontSize=16;" vertex="1" parent="tDlCE4xTZY2SPCMw47_L-2">
          <mxGeometry x="45" y="120" width="10" height="1130" as="geometry" />
        </mxCell>
        <mxCell id="tDlCE4xTZY2SPCMw47_L-6" value="dispatch" style="html=1;verticalAlign=bottom;endArrow=block;curved=0;rounded=0;entryX=0;entryY=0;entryDx=0;entryDy=5;fontColor=#000000;labelBackgroundColor=none;fontSize=16;" edge="1" target="tDlCE4xTZY2SPCMw47_L-5" parent="1" source="tDlCE4xTZY2SPCMw47_L-3">
          <mxGeometry relative="1" as="geometry">
            <mxPoint x="320" y="165" as="sourcePoint" />
          </mxGeometry>
        </mxCell>
        <mxCell id="tDlCE4xTZY2SPCMw47_L-7" value="return" style="html=1;verticalAlign=bottom;endArrow=open;dashed=1;endSize=8;curved=0;rounded=0;exitX=0;exitY=1;exitDx=0;exitDy=-5;fontColor=#000000;labelBackgroundColor=none;fontSize=16;" edge="1" source="tDlCE4xTZY2SPCMw47_L-5" parent="1" target="tDlCE4xTZY2SPCMw47_L-1">
          <mxGeometry relative="1" as="geometry">
            <mxPoint x="320" y="235" as="targetPoint" />
          </mxGeometry>
        </mxCell>
        <mxCell id="tDlCE4xTZY2SPCMw47_L-8" value="&lt;div&gt;&lt;pre style=&quot;font-family: &amp;quot;JetBrains Mono&amp;quot;, monospace;&quot;&gt;&lt;span&gt;FLinkerLoad&lt;/span&gt;&lt;/pre&gt;&lt;/div&gt;" style="shape=umlLifeline;perimeter=lifelinePerimeter;whiteSpace=wrap;html=1;container=1;dropTarget=0;collapsible=0;recursiveResize=0;outlineConnect=0;portConstraint=eastwest;newEdgeStyle={&quot;curved&quot;:0,&quot;rounded&quot;:0};fontColor=#000000;labelBackgroundColor=none;fontSize=16;" vertex="1" parent="1">
          <mxGeometry x="570" y="40" width="100" height="1300" as="geometry" />
        </mxCell>
        <mxCell id="tDlCE4xTZY2SPCMw47_L-9" value="&lt;div&gt;&lt;pre style=&quot;font-family: &amp;quot;JetBrains Mono&amp;quot;, monospace;&quot;&gt;CreateLinker&lt;/pre&gt;&lt;/div&gt;" style="html=1;points=[[0,0,0,0,5],[0,1,0,0,-5],[1,0,0,0,5],[1,1,0,0,-5]];perimeter=orthogonalPerimeter;outlineConnect=0;targetShapes=umlLifeline;portConstraint=eastwest;newEdgeStyle={&quot;curved&quot;:0,&quot;rounded&quot;:0};fontColor=#000000;labelBackgroundColor=none;fontSize=16;" vertex="1" parent="tDlCE4xTZY2SPCMw47_L-8">
          <mxGeometry x="45" y="140" width="10" height="1110" as="geometry" />
        </mxCell>
        <mxCell id="tDlCE4xTZY2SPCMw47_L-12" value="&lt;div&gt;&lt;pre style=&quot;font-family: &amp;quot;JetBrains Mono&amp;quot;, monospace;&quot;&gt;CreateLinkerAsync&lt;/pre&gt;&lt;/div&gt;" style="html=1;points=[[0,0,0,0,5],[0,1,0,0,-5],[1,0,0,0,5],[1,1,0,0,-5]];perimeter=orthogonalPerimeter;outlineConnect=0;targetShapes=umlLifeline;portConstraint=eastwest;newEdgeStyle={&quot;curved&quot;:0,&quot;rounded&quot;:0};fontColor=#000000;labelBackgroundColor=none;fontSize=16;" vertex="1" parent="tDlCE4xTZY2SPCMw47_L-8">
          <mxGeometry x="55" y="180" width="10" height="130" as="geometry" />
        </mxCell>
        <mxCell id="tDlCE4xTZY2SPCMw47_L-13" value="self call" style="html=1;align=left;spacingLeft=2;endArrow=block;rounded=0;edgeStyle=orthogonalEdgeStyle;curved=0;rounded=0;fontColor=#000000;labelBackgroundColor=none;fontSize=16;" edge="1" target="tDlCE4xTZY2SPCMw47_L-12" parent="tDlCE4xTZY2SPCMw47_L-8">
          <mxGeometry relative="1" as="geometry">
            <mxPoint x="60" y="160" as="sourcePoint" />
            <Array as="points">
              <mxPoint x="90" y="160" />
              <mxPoint x="90" y="180" />
            </Array>
          </mxGeometry>
        </mxCell>
        <mxCell id="tDlCE4xTZY2SPCMw47_L-17" value="&lt;div&gt;&lt;pre style=&quot;font-family: &amp;quot;JetBrains Mono&amp;quot;, monospace;&quot;&gt;&lt;span&gt;Tick&lt;/span&gt;&lt;/pre&gt;&lt;/div&gt;" style="html=1;points=[[0,0,0,0,5],[0,1,0,0,-5],[1,0,0,0,5],[1,1,0,0,-5]];perimeter=orthogonalPerimeter;outlineConnect=0;targetShapes=umlLifeline;portConstraint=eastwest;newEdgeStyle={&quot;curved&quot;:0,&quot;rounded&quot;:0};fontColor=#000000;labelBackgroundColor=none;fontSize=16;" vertex="1" parent="tDlCE4xTZY2SPCMw47_L-8">
          <mxGeometry x="55" y="400" width="10" height="780" as="geometry" />
        </mxCell>
        <mxCell id="tDlCE4xTZY2SPCMw47_L-18" value="self call" style="html=1;align=left;spacingLeft=2;endArrow=block;rounded=0;edgeStyle=orthogonalEdgeStyle;curved=0;rounded=0;fontColor=#000000;labelBackgroundColor=none;fontSize=16;" edge="1" target="tDlCE4xTZY2SPCMw47_L-17" parent="tDlCE4xTZY2SPCMw47_L-8">
          <mxGeometry relative="1" as="geometry">
            <mxPoint x="60" y="380" as="sourcePoint" />
            <Array as="points">
              <mxPoint x="90" y="380" />
              <mxPoint x="90" y="400" />
            </Array>
          </mxGeometry>
        </mxCell>
        <mxCell id="tDlCE4xTZY2SPCMw47_L-21" value="&lt;div&gt;&lt;pre style=&quot;font-family: &amp;quot;JetBrains Mono&amp;quot;, monospace;&quot;&gt;&lt;span&gt;CreateLoader&lt;/span&gt;&lt;/pre&gt;&lt;/div&gt;" style="html=1;points=[[0,0,0,0,5],[0,1,0,0,-5],[1,0,0,0,5],[1,1,0,0,-5]];perimeter=orthogonalPerimeter;outlineConnect=0;targetShapes=umlLifeline;portConstraint=eastwest;newEdgeStyle={&quot;curved&quot;:0,&quot;rounded&quot;:0};fontColor=#000000;labelBackgroundColor=none;fontSize=16;" vertex="1" parent="tDlCE4xTZY2SPCMw47_L-8">
          <mxGeometry x="65" y="430" width="10" height="40" as="geometry" />
        </mxCell>
        <mxCell id="tDlCE4xTZY2SPCMw47_L-22" value="self call" style="html=1;align=left;spacingLeft=2;endArrow=block;rounded=0;edgeStyle=orthogonalEdgeStyle;curved=0;rounded=0;fontColor=#000000;labelBackgroundColor=none;fontSize=16;" edge="1" target="tDlCE4xTZY2SPCMw47_L-21" parent="tDlCE4xTZY2SPCMw47_L-8">
          <mxGeometry relative="1" as="geometry">
            <mxPoint x="70" y="410" as="sourcePoint" />
            <Array as="points">
              <mxPoint x="100" y="410" />
              <mxPoint x="100" y="430" />
            </Array>
          </mxGeometry>
        </mxCell>
        <mxCell id="tDlCE4xTZY2SPCMw47_L-10" value="dispatch" style="html=1;verticalAlign=bottom;endArrow=block;curved=0;rounded=0;entryX=0;entryY=0;entryDx=0;entryDy=5;fontColor=#000000;labelBackgroundColor=none;fontSize=16;" edge="1" target="tDlCE4xTZY2SPCMw47_L-9" parent="1">
          <mxGeometry relative="1" as="geometry">
            <mxPoint x="390" y="185" as="sourcePoint" />
          </mxGeometry>
        </mxCell>
        <mxCell id="tDlCE4xTZY2SPCMw47_L-11" value="return" style="html=1;verticalAlign=bottom;endArrow=open;dashed=1;endSize=8;curved=0;rounded=0;exitX=0;exitY=1;exitDx=0;exitDy=-5;fontColor=#000000;labelBackgroundColor=none;fontSize=16;" edge="1" source="tDlCE4xTZY2SPCMw47_L-9" parent="1" target="tDlCE4xTZY2SPCMw47_L-5">
          <mxGeometry relative="1" as="geometry">
            <mxPoint x="390" y="255" as="targetPoint" />
          </mxGeometry>
        </mxCell>
        <mxCell id="tDlCE4xTZY2SPCMw47_L-14" value="创建Linker" style="text;html=1;align=center;verticalAlign=middle;resizable=0;points=[];autosize=1;strokeColor=none;fillColor=none;fontColor=#000000;labelBackgroundColor=none;fontSize=16;" vertex="1" parent="1">
          <mxGeometry x="630" y="228" width="100" height="30" as="geometry" />
        </mxCell>
        <mxCell id="tDlCE4xTZY2SPCMw47_L-16" value="Linker" style="html=1;align=left;spacingLeft=2;endArrow=block;rounded=0;edgeStyle=orthogonalEdgeStyle;curved=0;rounded=0;fontColor=#000000;labelBackgroundColor=none;fontSize=16;" edge="1" parent="1">
          <mxGeometry relative="1" as="geometry">
            <mxPoint x="630" y="350" as="sourcePoint" />
            <Array as="points">
              <mxPoint x="660" y="380" />
            </Array>
            <mxPoint x="630" y="380" as="targetPoint" />
          </mxGeometry>
        </mxCell>
        <mxCell id="tDlCE4xTZY2SPCMw47_L-20" value="ELinkerStatus" style="html=1;align=left;spacingLeft=2;endArrow=block;rounded=0;edgeStyle=orthogonalEdgeStyle;curved=0;rounded=0;fontColor=#000000;labelBackgroundColor=none;fontSize=16;" edge="1" parent="1">
          <mxGeometry relative="1" as="geometry">
            <mxPoint x="620" y="1220" as="sourcePoint" />
            <Array as="points">
              <mxPoint x="650" y="1220" />
              <mxPoint x="650" y="1250" />
            </Array>
            <mxPoint x="625" y="1250" as="targetPoint" />
          </mxGeometry>
        </mxCell>
        <mxCell id="tDlCE4xTZY2SPCMw47_L-23" value="ELinkerStatus" style="html=1;align=left;spacingLeft=2;endArrow=block;rounded=0;edgeStyle=orthogonalEdgeStyle;curved=0;rounded=0;fontColor=#000000;labelBackgroundColor=none;fontSize=16;" edge="1" parent="1">
          <mxGeometry x="0.0118" relative="1" as="geometry">
            <mxPoint x="630" y="510" as="sourcePoint" />
            <Array as="points">
              <mxPoint x="660" y="510" />
              <mxPoint x="660" y="540" />
            </Array>
            <mxPoint x="635" y="540" as="targetPoint" />
            <mxPoint as="offset" />
          </mxGeometry>
        </mxCell>
        <mxCell id="tDlCE4xTZY2SPCMw47_L-26" value="&lt;div&gt;&lt;pre style=&quot;font-family: &amp;quot;JetBrains Mono&amp;quot;, monospace;&quot;&gt;ProcessPackageSummary&lt;/pre&gt;&lt;/div&gt;" style="html=1;points=[[0,0,0,0,5],[0,1,0,0,-5],[1,0,0,0,5],[1,1,0,0,-5]];perimeter=orthogonalPerimeter;outlineConnect=0;targetShapes=umlLifeline;portConstraint=eastwest;newEdgeStyle={&quot;curved&quot;:0,&quot;rounded&quot;:0};fontColor=#000000;labelBackgroundColor=none;fontSize=16;" vertex="1" parent="1">
          <mxGeometry x="700" y="560" width="10" height="650" as="geometry" />
        </mxCell>
        <mxCell id="tDlCE4xTZY2SPCMw47_L-27" value="dispatch" style="html=1;verticalAlign=bottom;endArrow=block;curved=0;rounded=0;entryX=0;entryY=0;entryDx=0;entryDy=5;fontColor=#000000;labelBackgroundColor=none;fontSize=16;" edge="1" target="tDlCE4xTZY2SPCMw47_L-26" parent="1">
          <mxGeometry relative="1" as="geometry">
            <mxPoint x="630" y="565" as="sourcePoint" />
          </mxGeometry>
        </mxCell>
        <mxCell id="tDlCE4xTZY2SPCMw47_L-28" value="return" style="html=1;verticalAlign=bottom;endArrow=open;dashed=1;endSize=8;curved=0;rounded=0;exitX=0;exitY=1;exitDx=0;exitDy=-5;fontColor=#000000;labelBackgroundColor=none;fontSize=16;" edge="1" source="tDlCE4xTZY2SPCMw47_L-26" parent="1" target="tDlCE4xTZY2SPCMw47_L-17">
          <mxGeometry relative="1" as="geometry">
            <mxPoint x="630" y="635" as="targetPoint" />
          </mxGeometry>
        </mxCell>
        <mxCell id="tDlCE4xTZY2SPCMw47_L-29" value="&lt;div&gt;&lt;pre style=&quot;font-family: &amp;quot;JetBrains Mono&amp;quot;, monospace;&quot;&gt;SerializePackageFileSummary&lt;/pre&gt;&lt;/div&gt;" style="html=1;points=[[0,0,0,0,5],[0,1,0,0,-5],[1,0,0,0,5],[1,1,0,0,-5]];perimeter=orthogonalPerimeter;outlineConnect=0;targetShapes=umlLifeline;portConstraint=eastwest;newEdgeStyle={&quot;curved&quot;:0,&quot;rounded&quot;:0};fontColor=#000000;labelBackgroundColor=none;fontSize=16;" vertex="1" parent="1">
          <mxGeometry x="780" y="560" width="10" height="510" as="geometry" />
        </mxCell>
        <mxCell id="tDlCE4xTZY2SPCMw47_L-30" value="dispatch" style="html=1;verticalAlign=bottom;endArrow=block;curved=0;rounded=0;entryX=0;entryY=0;entryDx=0;entryDy=5;fontColor=#000000;labelBackgroundColor=none;fontSize=16;" edge="1" target="tDlCE4xTZY2SPCMw47_L-29" parent="1">
          <mxGeometry relative="1" as="geometry">
            <mxPoint x="710" y="565" as="sourcePoint" />
          </mxGeometry>
        </mxCell>
        <mxCell id="tDlCE4xTZY2SPCMw47_L-31" value="&lt;span style=&quot;text-align: left;&quot;&gt;ELinkerStatus&lt;/span&gt;" style="html=1;verticalAlign=bottom;endArrow=open;dashed=1;endSize=8;curved=0;rounded=0;exitX=0;exitY=1;exitDx=0;exitDy=-5;fontColor=#000000;labelBackgroundColor=none;fontSize=16;" edge="1" source="tDlCE4xTZY2SPCMw47_L-29" parent="1" target="tDlCE4xTZY2SPCMw47_L-26">
          <mxGeometry relative="1" as="geometry">
            <mxPoint x="710" y="635" as="targetPoint" />
          </mxGeometry>
        </mxCell>
        <mxCell id="MS_WwOMEHJ72IZ3RsqPJ-1" value="&lt;div&gt;&lt;pre style=&quot;font-family: &amp;quot;JetBrains Mono&amp;quot;, monospace;&quot;&gt;SerializePackageFileSummaryInternal&lt;/pre&gt;&lt;/div&gt;" style="html=1;points=[[0,0,0,0,5],[0,1,0,0,-5],[1,0,0,0,5],[1,1,0,0,-5]];perimeter=orthogonalPerimeter;outlineConnect=0;targetShapes=umlLifeline;portConstraint=eastwest;newEdgeStyle={&quot;curved&quot;:0,&quot;rounded&quot;:0};fontColor=#000000;labelBackgroundColor=none;fontSize=16;" vertex="1" parent="1">
          <mxGeometry x="920" y="570" width="10" height="450" as="geometry" />
        </mxCell>
        <mxCell id="MS_WwOMEHJ72IZ3RsqPJ-2" value="dispatch" style="html=1;verticalAlign=bottom;endArrow=block;curved=0;rounded=0;entryX=0;entryY=0;entryDx=0;entryDy=5;fontColor=#000000;labelBackgroundColor=none;fontSize=16;" edge="1" target="MS_WwOMEHJ72IZ3RsqPJ-1" parent="1">
          <mxGeometry relative="1" as="geometry">
            <mxPoint x="790" y="575" as="sourcePoint" />
          </mxGeometry>
        </mxCell>
        <mxCell id="MS_WwOMEHJ72IZ3RsqPJ-3" value="return" style="html=1;verticalAlign=bottom;endArrow=open;dashed=1;endSize=8;curved=0;rounded=0;exitX=0;exitY=1;exitDx=0;exitDy=-5;fontColor=#000000;labelBackgroundColor=none;fontSize=16;" edge="1" source="MS_WwOMEHJ72IZ3RsqPJ-1" parent="1" target="tDlCE4xTZY2SPCMw47_L-29">
          <mxGeometry relative="1" as="geometry">
            <mxPoint x="790" y="645" as="targetPoint" />
          </mxGeometry>
        </mxCell>
        <mxCell id="MS_WwOMEHJ72IZ3RsqPJ-4" value="&lt;div&gt;&lt;pre style=&quot;font-family: &amp;quot;JetBrains Mono&amp;quot;, monospace;&quot;&gt;FStructuredArchiveRecord&lt;/pre&gt;&lt;/div&gt;" style="shape=umlLifeline;perimeter=lifelinePerimeter;whiteSpace=wrap;html=1;container=1;dropTarget=0;collapsible=0;recursiveResize=0;outlineConnect=0;portConstraint=eastwest;newEdgeStyle={&quot;curved&quot;:0,&quot;rounded&quot;:0};fontColor=#000000;labelBackgroundColor=none;fontSize=16;" vertex="1" parent="1">
          <mxGeometry x="1191" y="40" width="209" height="1280" as="geometry" />
        </mxCell>
        <mxCell id="MS_WwOMEHJ72IZ3RsqPJ-5" value="&lt;div&gt;&lt;pre style=&quot;font-family: &amp;quot;JetBrains Mono&amp;quot;, monospace;&quot;&gt;&lt;div&gt;&lt;pre style=&quot;font-family: &amp;quot;JetBrains Mono&amp;quot;, monospace;&quot;&gt;&lt;span&gt;operator&lt;/span&gt;&lt;span&gt;&amp;lt;&amp;lt;&lt;/span&gt;&lt;/pre&gt;&lt;/div&gt;&lt;/pre&gt;&lt;/div&gt;" style="html=1;points=[[0,0,0,0,5],[0,1,0,0,-5],[1,0,0,0,5],[1,1,0,0,-5]];perimeter=orthogonalPerimeter;outlineConnect=0;targetShapes=umlLifeline;portConstraint=eastwest;newEdgeStyle={&quot;curved&quot;:0,&quot;rounded&quot;:0};fontColor=#000000;labelBackgroundColor=none;fontSize=16;" vertex="1" parent="MS_WwOMEHJ72IZ3RsqPJ-4">
          <mxGeometry x="99.5" y="530" width="10" height="220" as="geometry" />
        </mxCell>
        <mxCell id="MS_WwOMEHJ72IZ3RsqPJ-6" value="dispatch" style="html=1;verticalAlign=bottom;endArrow=block;curved=0;rounded=0;entryX=0;entryY=0;entryDx=0;entryDy=5;fontColor=#000000;labelBackgroundColor=none;fontSize=16;" edge="1" target="MS_WwOMEHJ72IZ3RsqPJ-5" parent="1">
          <mxGeometry relative="1" as="geometry">
            <mxPoint x="930" y="575" as="sourcePoint" />
          </mxGeometry>
        </mxCell>
        <mxCell id="MS_WwOMEHJ72IZ3RsqPJ-7" value="return" style="html=1;verticalAlign=bottom;endArrow=open;dashed=1;endSize=8;curved=0;rounded=0;exitX=0;exitY=1;exitDx=0;exitDy=-5;entryX=1;entryY=0.467;entryDx=0;entryDy=0;entryPerimeter=0;fontColor=#000000;labelBackgroundColor=none;fontSize=16;" edge="1" source="MS_WwOMEHJ72IZ3RsqPJ-5" parent="1" target="MS_WwOMEHJ72IZ3RsqPJ-1">
          <mxGeometry relative="1" as="geometry">
            <mxPoint x="930" y="645" as="targetPoint" />
          </mxGeometry>
        </mxCell>
        <mxCell id="VVXK7UWSqcwqrZurLJhx-1" value="&lt;pre style=&quot;font-family: &amp;quot;JetBrains Mono&amp;quot;, monospace;&quot;&gt;&lt;font&gt;FPackageFileSummary&lt;/font&gt;&lt;/pre&gt;" style="shape=umlLifeline;perimeter=lifelinePerimeter;whiteSpace=wrap;html=1;container=1;dropTarget=0;collapsible=0;recursiveResize=0;outlineConnect=0;portConstraint=eastwest;newEdgeStyle={&quot;curved&quot;:0,&quot;rounded&quot;:0};fontColor=#000000;labelBackgroundColor=none;fontSize=16;" vertex="1" parent="1">
          <mxGeometry x="1540" y="40" width="165" height="1270" as="geometry" />
        </mxCell>
        <mxCell id="VVXK7UWSqcwqrZurLJhx-2" value="&lt;div&gt;&lt;pre style=&quot;font-family: &amp;quot;JetBrains Mono&amp;quot;, monospace;&quot;&gt;&lt;span&gt;operator&lt;/span&gt;&lt;span&gt;&amp;lt;&amp;lt;&lt;/span&gt;&lt;/pre&gt;&lt;/div&gt;" style="html=1;points=[[0,0,0,0,5],[0,1,0,0,-5],[1,0,0,0,5],[1,1,0,0,-5]];perimeter=orthogonalPerimeter;outlineConnect=0;targetShapes=umlLifeline;portConstraint=eastwest;newEdgeStyle={&quot;curved&quot;:0,&quot;rounded&quot;:0};fontColor=#000000;labelBackgroundColor=none;fontSize=16;" vertex="1" parent="VVXK7UWSqcwqrZurLJhx-1">
          <mxGeometry x="75" y="530" width="10" height="220" as="geometry" />
        </mxCell>
        <mxCell id="VVXK7UWSqcwqrZurLJhx-8" value="int32 ： 0" style="html=1;verticalAlign=bottom;endArrow=block;curved=0;rounded=0;entryX=0;entryY=0;entryDx=0;entryDy=5;fontColor=#000000;labelBackgroundColor=none;fontSize=16;" edge="1" target="VVXK7UWSqcwqrZurLJhx-7" parent="VVXK7UWSqcwqrZurLJhx-1">
          <mxGeometry relative="1" as="geometry">
            <mxPoint x="85" y="535" as="sourcePoint" />
          </mxGeometry>
        </mxCell>
        <mxCell id="VVXK7UWSqcwqrZurLJhx-3" value="dispatch" style="html=1;verticalAlign=bottom;endArrow=block;curved=0;rounded=0;entryX=0;entryY=0;entryDx=0;entryDy=5;fontColor=#000000;labelBackgroundColor=none;fontSize=16;" edge="1" target="VVXK7UWSqcwqrZurLJhx-2" parent="1" source="MS_WwOMEHJ72IZ3RsqPJ-5">
          <mxGeometry relative="1" as="geometry">
            <mxPoint x="1540" y="575" as="sourcePoint" />
          </mxGeometry>
        </mxCell>
        <mxCell id="VVXK7UWSqcwqrZurLJhx-4" value="return" style="html=1;verticalAlign=bottom;endArrow=open;dashed=1;endSize=8;curved=0;rounded=0;exitX=0;exitY=1;exitDx=0;exitDy=-5;entryX=1;entryY=1;entryDx=0;entryDy=-5;entryPerimeter=0;fontColor=#000000;labelBackgroundColor=none;fontSize=16;" edge="1" source="VVXK7UWSqcwqrZurLJhx-2" parent="1" target="MS_WwOMEHJ72IZ3RsqPJ-5">
          <mxGeometry relative="1" as="geometry">
            <mxPoint x="1540" y="645" as="targetPoint" />
          </mxGeometry>
        </mxCell>
        <mxCell id="VVXK7UWSqcwqrZurLJhx-5" value="&lt;div&gt;&lt;pre style=&quot;font-family: &amp;quot;JetBrains Mono&amp;quot;, monospace;&quot;&gt;&lt;div&gt;&lt;pre style=&quot;font-family: &amp;quot;JetBrains Mono&amp;quot;, monospace;&quot;&gt;FStructuredArchiveSlot&lt;/pre&gt;&lt;/div&gt;&lt;/pre&gt;&lt;/div&gt;" style="shape=umlLifeline;perimeter=lifelinePerimeter;whiteSpace=wrap;html=1;container=1;dropTarget=0;collapsible=0;recursiveResize=0;outlineConnect=0;portConstraint=eastwest;newEdgeStyle={&quot;curved&quot;:0,&quot;rounded&quot;:0};fontColor=#000000;labelBackgroundColor=none;fontSize=16;" vertex="1" parent="1">
          <mxGeometry x="1790" y="40" width="180" height="1260" as="geometry" />
        </mxCell>
        <mxCell id="VVXK7UWSqcwqrZurLJhx-7" value="&lt;div&gt;&lt;pre style=&quot;font-family: &amp;quot;JetBrains Mono&amp;quot;, monospace;&quot;&gt;&lt;span&gt;operator&lt;/span&gt;&lt;span&gt;&amp;lt;&amp;lt;&lt;/span&gt;&lt;/pre&gt;&lt;/div&gt;" style="html=1;points=[[0,0,0,0,5],[0,1,0,0,-5],[1,0,0,0,5],[1,1,0,0,-5]];perimeter=orthogonalPerimeter;outlineConnect=0;targetShapes=umlLifeline;portConstraint=eastwest;newEdgeStyle={&quot;curved&quot;:0,&quot;rounded&quot;:0};fontColor=#000000;labelBackgroundColor=none;fontSize=16;" vertex="1" parent="VVXK7UWSqcwqrZurLJhx-5">
          <mxGeometry x="85" y="530" width="10" height="220" as="geometry" />
        </mxCell>
        <mxCell id="VVXK7UWSqcwqrZurLJhx-12" value="*this" style="html=1;verticalAlign=bottom;endArrow=block;curved=0;rounded=0;entryX=0;entryY=0;entryDx=0;entryDy=5;fontColor=#000000;labelBackgroundColor=none;fontSize=16;" edge="1" target="VVXK7UWSqcwqrZurLJhx-11" parent="VVXK7UWSqcwqrZurLJhx-5">
          <mxGeometry relative="1" as="geometry">
            <mxPoint x="95" y="535" as="sourcePoint" />
          </mxGeometry>
        </mxCell>
        <mxCell id="VVXK7UWSqcwqrZurLJhx-18" value="int32 ： 0" style="html=1;verticalAlign=bottom;endArrow=block;curved=0;rounded=0;entryX=0;entryY=0;entryDx=0;entryDy=5;fontColor=#000000;labelBackgroundColor=none;fontSize=16;" edge="1" target="VVXK7UWSqcwqrZurLJhx-17" parent="VVXK7UWSqcwqrZurLJhx-5">
          <mxGeometry relative="1" as="geometry">
            <mxPoint x="95" y="615" as="sourcePoint" />
          </mxGeometry>
        </mxCell>
        <mxCell id="VVXK7UWSqcwqrZurLJhx-27" value="dispatch" style="html=1;verticalAlign=bottom;endArrow=block;curved=0;rounded=0;entryX=0;entryY=0;entryDx=0;entryDy=5;fontColor=#000000;labelBackgroundColor=none;fontSize=16;" edge="1" target="VVXK7UWSqcwqrZurLJhx-26" parent="VVXK7UWSqcwqrZurLJhx-5">
          <mxGeometry relative="1" as="geometry">
            <mxPoint x="95" y="695" as="sourcePoint" />
          </mxGeometry>
        </mxCell>
        <mxCell id="VVXK7UWSqcwqrZurLJhx-9" value="return" style="html=1;verticalAlign=bottom;endArrow=open;dashed=1;endSize=8;curved=0;rounded=0;exitX=0;exitY=1;exitDx=0;exitDy=-5;fontColor=#000000;labelBackgroundColor=none;fontSize=16;" edge="1" source="VVXK7UWSqcwqrZurLJhx-7" parent="1" target="VVXK7UWSqcwqrZurLJhx-1">
          <mxGeometry relative="1" as="geometry">
            <mxPoint x="1625" y="645" as="targetPoint" />
          </mxGeometry>
        </mxCell>
        <mxCell id="VVXK7UWSqcwqrZurLJhx-10" value="&lt;div&gt;&lt;pre style=&quot;font-family: &amp;quot;JetBrains Mono&amp;quot;, monospace;&quot;&gt;FStructuredArchive&lt;/pre&gt;&lt;/div&gt;" style="shape=umlLifeline;perimeter=lifelinePerimeter;whiteSpace=wrap;html=1;container=1;dropTarget=0;collapsible=0;recursiveResize=0;outlineConnect=0;portConstraint=eastwest;newEdgeStyle={&quot;curved&quot;:0,&quot;rounded&quot;:0};fontColor=#000000;labelBackgroundColor=none;fontSize=16;" vertex="1" parent="1">
          <mxGeometry x="2068" y="40" width="142" height="1240" as="geometry" />
        </mxCell>
        <mxCell id="VVXK7UWSqcwqrZurLJhx-11" value="&lt;div&gt;&lt;pre style=&quot;font-family: &amp;quot;JetBrains Mono&amp;quot;, monospace;&quot;&gt;EnterSlot&lt;/pre&gt;&lt;/div&gt;" style="html=1;points=[[0,0,0,0,5],[0,1,0,0,-5],[1,0,0,0,5],[1,1,0,0,-5]];perimeter=orthogonalPerimeter;outlineConnect=0;targetShapes=umlLifeline;portConstraint=eastwest;newEdgeStyle={&quot;curved&quot;:0,&quot;rounded&quot;:0};fontColor=#000000;labelBackgroundColor=none;fontSize=16;" vertex="1" parent="VVXK7UWSqcwqrZurLJhx-10">
          <mxGeometry x="66" y="530" width="10" height="50" as="geometry" />
        </mxCell>
        <mxCell id="VVXK7UWSqcwqrZurLJhx-26" value="&lt;div&gt;&lt;pre style=&quot;font-family: &amp;quot;JetBrains Mono&amp;quot;, monospace;&quot;&gt;&lt;span&gt;LeaveSlot&lt;/span&gt;&lt;/pre&gt;&lt;/div&gt;" style="html=1;points=[[0,0,0,0,5],[0,1,0,0,-5],[1,0,0,0,5],[1,1,0,0,-5]];perimeter=orthogonalPerimeter;outlineConnect=0;targetShapes=umlLifeline;portConstraint=eastwest;newEdgeStyle={&quot;curved&quot;:0,&quot;rounded&quot;:0};fontColor=#000000;labelBackgroundColor=none;fontSize=16;" vertex="1" parent="VVXK7UWSqcwqrZurLJhx-10">
          <mxGeometry x="66" y="690" width="10" height="80" as="geometry" />
        </mxCell>
        <mxCell id="VVXK7UWSqcwqrZurLJhx-14" value="输入用于序列化值的当前槽位，&lt;div&gt;判断存档是否处于即将写入空槽的状态&lt;/div&gt;" style="text;html=1;align=center;verticalAlign=middle;resizable=0;points=[];autosize=1;strokeColor=none;fillColor=none;fontColor=#000000;labelBackgroundColor=none;fontSize=16;" vertex="1" parent="1">
          <mxGeometry x="2105" y="525" width="300" height="50" as="geometry" />
        </mxCell>
        <mxCell id="VVXK7UWSqcwqrZurLJhx-16" value="&lt;div&gt;&lt;pre style=&quot;font-family: &amp;quot;JetBrains Mono&amp;quot;, monospace;&quot;&gt;FBinaryArchiveFormatter&lt;/pre&gt;&lt;/div&gt;" style="shape=umlLifeline;perimeter=lifelinePerimeter;whiteSpace=wrap;html=1;container=1;dropTarget=0;collapsible=0;recursiveResize=0;outlineConnect=0;portConstraint=eastwest;newEdgeStyle={&quot;curved&quot;:0,&quot;rounded&quot;:0};fontColor=#000000;labelBackgroundColor=none;fontSize=16;" vertex="1" parent="1">
          <mxGeometry x="2380" y="40" width="190" height="1230" as="geometry" />
        </mxCell>
        <mxCell id="VVXK7UWSqcwqrZurLJhx-17" value="&lt;div&gt;&lt;pre style=&quot;font-family: &amp;quot;JetBrains Mono&amp;quot;, monospace;&quot;&gt;Serialize&lt;/pre&gt;&lt;/div&gt;" style="html=1;points=[[0,0,0,0,5],[0,1,0,0,-5],[1,0,0,0,5],[1,1,0,0,-5]];perimeter=orthogonalPerimeter;outlineConnect=0;targetShapes=umlLifeline;portConstraint=eastwest;newEdgeStyle={&quot;curved&quot;:0,&quot;rounded&quot;:0};fontColor=#000000;labelBackgroundColor=none;fontSize=16;" vertex="1" parent="VVXK7UWSqcwqrZurLJhx-16">
          <mxGeometry x="90" y="610" width="10" height="50" as="geometry" />
        </mxCell>
        <mxCell id="VVXK7UWSqcwqrZurLJhx-23" value="dispatch" style="html=1;verticalAlign=bottom;endArrow=block;curved=0;rounded=0;entryX=0;entryY=0;entryDx=0;entryDy=5;fontColor=#000000;labelBackgroundColor=none;fontSize=16;" edge="1" target="VVXK7UWSqcwqrZurLJhx-22" parent="VVXK7UWSqcwqrZurLJhx-16">
          <mxGeometry relative="1" as="geometry">
            <mxPoint x="100" y="615" as="sourcePoint" />
          </mxGeometry>
        </mxCell>
        <mxCell id="VVXK7UWSqcwqrZurLJhx-20" value="从文件中反序列化出int" style="text;html=1;align=center;verticalAlign=middle;resizable=0;points=[];autosize=1;strokeColor=none;fillColor=none;fontColor=#000000;labelBackgroundColor=none;fontSize=16;" vertex="1" parent="1">
          <mxGeometry x="2330" y="610" width="180" height="30" as="geometry" />
        </mxCell>
        <mxCell id="VVXK7UWSqcwqrZurLJhx-21" value="&lt;div&gt;&lt;pre style=&quot;font-family: &amp;quot;JetBrains Mono&amp;quot;, monospace;&quot;&gt;FArchive&lt;/pre&gt;&lt;/div&gt;" style="shape=umlLifeline;perimeter=lifelinePerimeter;whiteSpace=wrap;html=1;container=1;dropTarget=0;collapsible=0;recursiveResize=0;outlineConnect=0;portConstraint=eastwest;newEdgeStyle={&quot;curved&quot;:0,&quot;rounded&quot;:0};fontColor=#000000;labelBackgroundColor=none;fontSize=16;" vertex="1" parent="1">
          <mxGeometry x="2650" y="40" width="100" height="1210" as="geometry" />
        </mxCell>
        <mxCell id="VVXK7UWSqcwqrZurLJhx-22" value="&lt;div&gt;&lt;pre style=&quot;font-family: &amp;quot;JetBrains Mono&amp;quot;, monospace;&quot;&gt;ByteOrderSerialize&lt;/pre&gt;&lt;/div&gt;" style="html=1;points=[[0,0,0,0,5],[0,1,0,0,-5],[1,0,0,0,5],[1,1,0,0,-5]];perimeter=orthogonalPerimeter;outlineConnect=0;targetShapes=umlLifeline;portConstraint=eastwest;newEdgeStyle={&quot;curved&quot;:0,&quot;rounded&quot;:0};fontColor=#000000;labelBackgroundColor=none;fontSize=16;" vertex="1" parent="VVXK7UWSqcwqrZurLJhx-21">
          <mxGeometry x="45" y="610" width="10" height="50" as="geometry" />
        </mxCell>
        <mxCell id="VVXK7UWSqcwqrZurLJhx-29" value="离开槽位" style="text;html=1;align=center;verticalAlign=middle;resizable=0;points=[];autosize=1;strokeColor=none;fillColor=none;fontColor=#000000;labelBackgroundColor=none;fontSize=16;" vertex="1" parent="1">
          <mxGeometry x="2145" y="728" width="90" height="30" as="geometry" />
        </mxCell>
      </root>
    </mxGraphModel>
  </diagram>
  <diagram id="CAczI8A5wFdw4gQ_MewH" name="UObject的序列化与反序列化时序图">
    <mxGraphModel dx="1418" dy="786" grid="1" gridSize="10" guides="1" tooltips="1" connect="1" arrows="1" fold="1" page="1" pageScale="1" pageWidth="827" pageHeight="1169" math="0" shadow="0">
      <root>
        <mxCell id="0" />
        <mxCell id="1" parent="0" />
        <mxCell id="_GkTlN3eMFnwsy9FnPl4-1" value="&lt;article data-content=&quot;[{&amp;quot;type&amp;quot;:&amp;quot;block&amp;quot;,&amp;quot;id&amp;quot;:&amp;quot;a0E5-1737795180917&amp;quot;,&amp;quot;name&amp;quot;:&amp;quot;code&amp;quot;,&amp;quot;data&amp;quot;:{&amp;quot;version&amp;quot;:1,&amp;quot;language&amp;quot;:&amp;quot;&amp;quot;,&amp;quot;theme&amp;quot;:&amp;quot;default&amp;quot;},&amp;quot;nodes&amp;quot;:[{&amp;quot;type&amp;quot;:&amp;quot;block&amp;quot;,&amp;quot;id&amp;quot;:&amp;quot;yxj7-1737795180852&amp;quot;,&amp;quot;name&amp;quot;:&amp;quot;code-line&amp;quot;,&amp;quot;data&amp;quot;:{},&amp;quot;nodes&amp;quot;:[{&amp;quot;type&amp;quot;:&amp;quot;text&amp;quot;,&amp;quot;id&amp;quot;:&amp;quot;mH23-1737795180851&amp;quot;,&amp;quot;leaves&amp;quot;:[{&amp;quot;text&amp;quot;:&amp;quot;UObject&amp;quot;,&amp;quot;marks&amp;quot;:[]}]}]}],&amp;quot;state&amp;quot;:{}}]&quot;&gt;&lt;div data-theme=&quot;default&quot; style=&quot;text-align: center; white-space-collapse: preserve;&quot; data-language=&quot;&quot;&gt;&lt;font style=&quot;font-size: 16px;&quot;&gt;UObject&lt;/font&gt;&lt;/div&gt;&lt;/article&gt;&lt;hr style=&quot;border-style:solid;&quot; size=&quot;1&quot;&gt;&lt;p style=&quot;margin:0px;margin-left:4px;&quot;&gt;+ field1: Type&lt;br&gt;+ field2: Type&lt;/p&gt;&lt;hr style=&quot;border-style:solid;&quot; size=&quot;1&quot;&gt;&lt;p style=&quot;margin:0px;margin-left:4px;&quot;&gt;+&lt;span style=&quot;white-space-collapse: preserve;&quot;&gt;Serialize(FStructuredArchiveRecord）&lt;/span&gt;&lt;span style=&quot;&quot;&gt;: void&lt;/span&gt;&lt;/p&gt;&lt;p style=&quot;margin:0px;margin-left:4px;&quot;&gt;+ method2(Type, Type): Type&lt;/p&gt;" style="verticalAlign=top;align=left;overflow=fill;html=1;whiteSpace=wrap;fontColor=#000000;labelBackgroundColor=none;" vertex="1" parent="1">
          <mxGeometry x="30" y="130" width="290" height="140" as="geometry" />
        </mxCell>
        <mxCell id="uM4VWn-GpBhh_wQEq0oK-1" value="&lt;div style=&quot;&quot;&gt;&lt;pre style=&quot;text-align: center; font-family: &amp;quot;JetBrains Mono&amp;quot;, monospace; font-size: 10.5pt;&quot;&gt;FLinker&lt;/pre&gt;&lt;pre style=&quot;text-align: center; font-family: &amp;quot;JetBrains Mono&amp;quot;, monospace; font-size: 10.5pt;&quot;&gt;用来填充uasset到upackage&lt;/pre&gt;&lt;/div&gt;&lt;hr style=&quot;border-style:solid;&quot; size=&quot;1&quot;&gt;&lt;p style=&quot;margin:0px;margin-left:4px;&quot;&gt;+&amp;nbsp;&lt;span style=&quot;font-family: &amp;quot;JetBrains Mono&amp;quot;, monospace; font-size: 10.5pt;&quot;&gt;LinkerRoot&lt;/span&gt;&lt;span style=&quot;&quot;&gt;:&amp;nbsp;&lt;/span&gt;&lt;span style=&quot;font-family: &amp;quot;JetBrains Mono&amp;quot;, monospace; font-size: 10.5pt;&quot;&gt;UPackage&lt;/span&gt;&lt;span style=&quot;font-family: &amp;quot;JetBrains Mono&amp;quot;, monospace; font-size: 10.5pt;&quot;&gt;*&amp;nbsp; 此链接器相关的顶级package对象？&amp;nbsp;&lt;/span&gt;&lt;/p&gt;&lt;p style=&quot;margin:0px;margin-left:4px;&quot;&gt;+ Summary:&amp;nbsp;&lt;span style=&quot;font-family: &amp;quot;JetBrains Mono&amp;quot;, monospace; font-size: 10.5pt;&quot;&gt;FPackageFileSummary&amp;nbsp; package文件的内容&lt;/span&gt;&lt;/p&gt;&lt;hr style=&quot;border-style:solid;&quot; size=&quot;1&quot;&gt;&lt;p style=&quot;margin:0px;margin-left:4px;&quot;&gt;+ method1(Type): Type&lt;br&gt;+ method2(Type, Type): Type&lt;/p&gt;" style="verticalAlign=top;align=left;overflow=fill;html=1;whiteSpace=wrap;fontColor=#000000;labelBackgroundColor=none;" vertex="1" parent="1">
          <mxGeometry x="510" y="300" width="420" height="220" as="geometry" />
        </mxCell>
        <mxCell id="uM4VWn-GpBhh_wQEq0oK-2" value="&lt;div style=&quot;&quot;&gt;&lt;pre style=&quot;text-align: center; font-family: &amp;quot;JetBrains Mono&amp;quot;, monospace; font-size: 10.5pt;&quot;&gt;FPackageFileSummary&lt;/pre&gt;&lt;pre style=&quot;text-align: center; font-family: &amp;quot;JetBrains Mono&amp;quot;, monospace; font-size: 10.5pt;&quot;&gt;package文件的内容，存储在package顶部&lt;/pre&gt;&lt;/div&gt;&lt;hr style=&quot;border-style:solid;&quot; size=&quot;1&quot;&gt;&lt;p style=&quot;margin:0px;margin-left:4px;&quot;&gt;+&amp;nbsp;&lt;span style=&quot;font-family: &amp;quot;JetBrains Mono&amp;quot;, monospace; font-size: 10.5pt;&quot;&gt;Tag&lt;/span&gt;&lt;span style=&quot;&quot;&gt;:&amp;nbsp;&lt;/span&gt;&lt;span style=&quot;font-family: &amp;quot;JetBrains Mono&amp;quot;, monospace; font-size: 10.5pt;&quot;&gt;int32&amp;nbsp; 标识是不是UE文件&lt;/span&gt;&lt;/p&gt;&lt;p style=&quot;margin:0px;margin-left:4px;&quot;&gt;+&amp;nbsp;&lt;span style=&quot;font-family: &amp;quot;JetBrains Mono&amp;quot;, monospace; font-size: 10.5pt;&quot;&gt;FileVersionUE&lt;/span&gt;&lt;span style=&quot;&quot;&gt;:&amp;nbsp;&lt;/span&gt;&lt;span style=&quot;font-family: &amp;quot;JetBrains Mono&amp;quot;, monospace; font-size: 10.5pt;&quot;&gt;FPackageFileVersion&amp;nbsp; UE文件版本&lt;/span&gt;&lt;/p&gt;&lt;p style=&quot;margin:0px;margin-left:4px;&quot;&gt;&lt;span style=&quot;font-family: &amp;quot;JetBrains Mono&amp;quot;, monospace; font-size: 10.5pt;&quot;&gt;+&lt;/span&gt;&lt;span style=&quot;font-family: &amp;quot;JetBrains Mono&amp;quot;, monospace; font-size: 10.5pt;&quot;&gt;FileVersionLicenseeUE：&lt;/span&gt;&lt;span style=&quot;font-family: &amp;quot;JetBrains Mono&amp;quot;, monospace; font-size: 10.5pt;&quot;&gt;int32&amp;nbsp;&amp;nbsp;&lt;/span&gt;&lt;span style=&quot;font-family: Poppins-Medium; font-size: 14px;&quot;&gt;被许可方文件版本&lt;/span&gt;&lt;/p&gt;&lt;p style=&quot;margin:0px;margin-left:4px;&quot;&gt;&lt;span style=&quot;font-family: Poppins-Medium; font-size: 14px;&quot;&gt;+&lt;/span&gt;&lt;span style=&quot;font-family: &amp;quot;JetBrains Mono&amp;quot;, monospace; font-size: 10.5pt;&quot;&gt;CustomVersionContainer：&lt;/span&gt;&lt;span style=&quot;font-family: &amp;quot;JetBrains Mono&amp;quot;, monospace; font-size: 10.5pt;&quot;&gt;FCustomVersionContainer&amp;nbsp; 自定义版本号&lt;/span&gt;&lt;/p&gt;&lt;p style=&quot;margin:0px;margin-left:4px;&quot;&gt;&lt;span style=&quot;font-family: &amp;quot;JetBrains Mono&amp;quot;, monospace; font-size: 10.5pt;&quot;&gt;+&lt;/span&gt;&lt;span style=&quot;font-family: &amp;quot;JetBrains Mono&amp;quot;, monospace; font-size: 10.5pt;&quot;&gt;PackageFlags:&lt;/span&gt;&lt;span style=&quot;font-family: &amp;quot;JetBrains Mono&amp;quot;, monospace; font-size: 10.5pt;&quot;&gt;uint32&lt;/span&gt;&lt;/p&gt;&lt;p style=&quot;margin:0px;margin-left:4px;&quot;&gt;&lt;span style=&quot;font-family: &amp;quot;JetBrains Mono&amp;quot;, monospace; font-size: 10.5pt;&quot;&gt;private：&lt;/span&gt;&lt;/p&gt;&lt;p style=&quot;margin:0px;margin-left:4px;&quot;&gt;&lt;span style=&quot;font-family: &amp;quot;JetBrains Mono&amp;quot;, monospace; font-size: 10.5pt;&quot;&gt;+&lt;/span&gt;&lt;span style=&quot;font-family: &amp;quot;JetBrains Mono&amp;quot;, monospace; font-size: 10.5pt;&quot;&gt;TotalHeaderSize：&lt;/span&gt;&lt;span style=&quot;font-family: &amp;quot;JetBrains Mono&amp;quot;, monospace; font-size: 10.5pt;&quot;&gt;int32&amp;nbsp;&amp;nbsp;&lt;/span&gt;&lt;span style=&quot;font-family: Poppins-Medium; font-size: 14px;&quot;&gt;创建一个FLinkerLoad需要读取的所有信息的总大小。这包括文件摘要，名称表和导入和导出映射&lt;/span&gt;&lt;/p&gt;&lt;p style=&quot;margin:0px;margin-left:4px;&quot;&gt;&lt;span style=&quot;font-family: Poppins-Medium; font-size: 14px;&quot;&gt;+&lt;/span&gt;&lt;span style=&quot;font-family: &amp;quot;JetBrains Mono&amp;quot;, monospace; font-size: 10.5pt;&quot;&gt;PackageName：FString&lt;/span&gt;&lt;/p&gt;&lt;p style=&quot;margin:0px;margin-left:4px;&quot;&gt;&lt;span style=&quot;font-family: &amp;quot;JetBrains Mono&amp;quot;, monospace; font-size: 10.5pt;&quot;&gt;+&lt;/span&gt;&lt;span style=&quot;font-family: &amp;quot;JetBrains Mono&amp;quot;, monospace; font-size: 10.5pt;&quot;&gt;NameCount：int32&amp;nbsp;&amp;nbsp;&lt;/span&gt;&lt;span style=&quot;font-family: Poppins-Medium; font-size: 14px;&quot;&gt;在磁盘上的文件中找到名称数据的位置&lt;/span&gt;&lt;/p&gt;&lt;p style=&quot;margin:0px;margin-left:4px;&quot;&gt;&lt;span style=&quot;font-family: Poppins-Medium; font-size: 14px;&quot;&gt;+&lt;/span&gt;&lt;span style=&quot;font-family: &amp;quot;JetBrains Mono&amp;quot;, monospace; font-size: 10.5pt;&quot;&gt;SoftObjectPathsCount：int32&lt;/span&gt;&lt;/p&gt;&lt;p style=&quot;margin:0px;margin-left:4px;&quot;&gt;&lt;span style=&quot;font-family: &amp;quot;JetBrains Mono&amp;quot;, monospace; font-size: 10.5pt;&quot;&gt;+&lt;/span&gt;&lt;span style=&quot;font-family: &amp;quot;JetBrains Mono&amp;quot;, monospace; font-size: 10.5pt;&quot;&gt;SoftObjectPathsOffset:int32&lt;/span&gt;&lt;/p&gt;&lt;p style=&quot;margin:0px;margin-left:4px;&quot;&gt;&lt;span style=&quot;font-family: &amp;quot;JetBrains Mono&amp;quot;, monospace; font-size: 10.5pt;&quot;&gt;+&lt;/span&gt;&lt;span style=&quot;font-family: &amp;quot;JetBrains Mono&amp;quot;, monospace; font-size: 10.5pt;&quot;&gt;LocalizationId:FString&lt;/span&gt;&lt;/p&gt;&lt;p style=&quot;margin:0px;margin-left:4px;&quot;&gt;&lt;span style=&quot;font-family: &amp;quot;JetBrains Mono&amp;quot;, monospace; font-size: 10.5pt;&quot;&gt;+&lt;/span&gt;&lt;span style=&quot;font-family: &amp;quot;JetBrains Mono&amp;quot;, monospace; font-size: 10.5pt;&quot;&gt;GatherableTextDataCount:int32&lt;/span&gt;&lt;/p&gt;&lt;p style=&quot;margin:0px;margin-left:4px;&quot;&gt;&lt;span style=&quot;font-family: &amp;quot;JetBrains Mono&amp;quot;, monospace; font-size: 10.5pt;&quot;&gt;+&lt;/span&gt;&lt;span style=&quot;font-family: &amp;quot;JetBrains Mono&amp;quot;, monospace; font-size: 10.5pt;&quot;&gt;GatherableTextDataOffset:int32&lt;/span&gt;&lt;/p&gt;&lt;p style=&quot;margin:0px;margin-left:4px;&quot;&gt;&lt;span style=&quot;font-family: &amp;quot;JetBrains Mono&amp;quot;, monospace; font-size: 10.5pt;&quot;&gt;+&lt;/span&gt;&lt;span style=&quot;font-family: &amp;quot;JetBrains Mono&amp;quot;, monospace; font-size: 10.5pt;&quot;&gt;ExportCount:int32&amp;nbsp;&amp;nbsp;&lt;/span&gt;&lt;/p&gt;&lt;p style=&quot;margin:0px;margin-left:4px;&quot;&gt;&lt;span style=&quot;font-family: &amp;quot;JetBrains Mono&amp;quot;, monospace; font-size: 10.5pt;&quot;&gt;+&lt;/span&gt;&lt;span style=&quot;font-family: &amp;quot;JetBrains Mono&amp;quot;, monospace; font-size: 10.5pt;&quot;&gt;ExportOffset:int32&lt;/span&gt;&lt;/p&gt;&lt;p style=&quot;margin:0px;margin-left:4px;&quot;&gt;&lt;span style=&quot;font-family: &amp;quot;JetBrains Mono&amp;quot;, monospace; font-size: 10.5pt;&quot;&gt;+&lt;/span&gt;&lt;span style=&quot;font-family: &amp;quot;JetBrains Mono&amp;quot;, monospace; font-size: 10.5pt;&quot;&gt;ImportCount:int32&lt;/span&gt;&lt;/p&gt;&lt;p style=&quot;margin:0px;margin-left:4px;&quot;&gt;&lt;span style=&quot;font-family: &amp;quot;JetBrains Mono&amp;quot;, monospace; font-size: 10.5pt;&quot;&gt;+&lt;/span&gt;&lt;span style=&quot;font-family: &amp;quot;JetBrains Mono&amp;quot;, monospace; font-size: 9.8pt;&quot;&gt;ImportOffset：&lt;/span&gt;&lt;span style=&quot;font-family: &amp;quot;JetBrains Mono&amp;quot;, monospace; font-size: 14px;&quot;&gt;int32&lt;/span&gt;&lt;/p&gt;&lt;p style=&quot;margin:0px;margin-left:4px;&quot;&gt;&lt;span style=&quot;font-family: &amp;quot;JetBrains Mono&amp;quot;, monospace; font-size: 10.5pt;&quot;&gt;...一堆uasset文件中内容的数量和偏移量&lt;/span&gt;&lt;/p&gt;&lt;hr style=&quot;border-style:solid;&quot; size=&quot;1&quot;&gt;&lt;p style=&quot;margin:0px;margin-left:4px;&quot;&gt;+ method1(Type): Type&lt;br&gt;+ method2(Type, Type): Type&lt;/p&gt;" style="verticalAlign=top;align=left;overflow=fill;html=1;whiteSpace=wrap;fontColor=#000000;labelBackgroundColor=none;" vertex="1" parent="1">
          <mxGeometry x="1050" y="280" width="560" height="520" as="geometry" />
        </mxCell>
      </root>
    </mxGraphModel>
  </diagram>
  <diagram id="Tb65GI6qtaV07dPVR0Jo" name="FArchive及其子类">
    <mxGraphModel dx="1493" dy="827" grid="1" gridSize="10" guides="1" tooltips="1" connect="1" arrows="1" fold="1" page="1" pageScale="1" pageWidth="827" pageHeight="1169" math="0" shadow="0">
      <root>
        <mxCell id="0" />
        <mxCell id="1" parent="0" />
        <mxCell id="SeWNAzoTiZHXDxgDX6O6-1" value="&lt;p style=&quot;margin:0px;margin-top:4px;text-align:center;&quot;&gt;&lt;i&gt;FArchive&lt;/i&gt;&lt;/p&gt;&lt;p style=&quot;margin:0px;margin-top:4px;text-align:center;&quot;&gt;&lt;i&gt;文件档案基类&lt;/i&gt;&lt;/p&gt;&lt;hr size=&quot;1&quot; style=&quot;border-style:solid;&quot;&gt;&lt;p style=&quot;margin:0px;margin-left:4px;&quot;&gt;+ field1: Type&lt;br&gt;+ field2: Type&lt;/p&gt;&lt;hr size=&quot;1&quot; style=&quot;border-style:solid;&quot;&gt;&lt;p style=&quot;margin:0px;margin-left:4px;&quot;&gt;+ method1(Type): Type&lt;br&gt;+ method2(Type, Type): Type&lt;/p&gt;" style="verticalAlign=top;align=left;overflow=fill;html=1;whiteSpace=wrap;" vertex="1" parent="1">
          <mxGeometry x="40" y="390" width="230" height="190" as="geometry" />
        </mxCell>
        <mxCell id="SeWNAzoTiZHXDxgDX6O6-2" value="&lt;div style=&quot;background-color: rgb(38, 38, 38); color: rgb(208, 208, 208);&quot;&gt;&lt;pre style=&quot;text-align: center; font-family: &amp;quot;JetBrains Mono&amp;quot;, monospace; font-size: 9.8pt;&quot;&gt;FMemoryArchive&lt;/pre&gt;&lt;/div&gt;&lt;hr size=&quot;1&quot; style=&quot;text-align: center; border-style: solid;&quot;&gt;&lt;p style=&quot;margin:0px;margin-left:4px;&quot;&gt;+ field1: Type&lt;br&gt;+ field2: Type&lt;/p&gt;&lt;hr size=&quot;1&quot; style=&quot;border-style:solid;&quot;&gt;&lt;p style=&quot;margin:0px;margin-left:4px;&quot;&gt;+ method1(Type): Type&lt;br&gt;+ method2(Type, Type): Type&lt;/p&gt;" style="verticalAlign=top;align=left;overflow=fill;html=1;whiteSpace=wrap;" vertex="1" parent="1">
          <mxGeometry x="440" y="370" width="190" height="140" as="geometry" />
        </mxCell>
        <mxCell id="SeWNAzoTiZHXDxgDX6O6-4" value="&lt;div style=&quot;background-color:#262626;color:#d0d0d0&quot;&gt;&lt;pre style=&quot;text-align: center; font-family: &amp;quot;JetBrains Mono&amp;quot;, monospace; font-size: 9.8pt;&quot;&gt;TMemoryWriterBase&lt;/pre&gt;&lt;/div&gt;&lt;hr size=&quot;1&quot; style=&quot;border-style:solid;&quot;&gt;&lt;p style=&quot;margin:0px;margin-left:4px;&quot;&gt;+ field1: Type&lt;br&gt;+ field2: Type&lt;/p&gt;&lt;hr size=&quot;1&quot; style=&quot;border-style:solid;&quot;&gt;&lt;p style=&quot;margin:0px;margin-left:4px;&quot;&gt;+ method1(Type): Type&lt;br&gt;+ method2(Type, Type): Type&lt;/p&gt;" style="verticalAlign=top;align=left;overflow=fill;html=1;whiteSpace=wrap;" vertex="1" parent="1">
          <mxGeometry x="800" y="330" width="190" height="140" as="geometry" />
        </mxCell>
        <mxCell id="SeWNAzoTiZHXDxgDX6O6-5" value="Extends" style="endArrow=block;endSize=16;endFill=0;html=1;rounded=0;" edge="1" parent="1" source="SeWNAzoTiZHXDxgDX6O6-2" target="SeWNAzoTiZHXDxgDX6O6-1">
          <mxGeometry width="160" relative="1" as="geometry">
            <mxPoint x="667" y="570" as="sourcePoint" />
            <mxPoint x="827" y="570" as="targetPoint" />
          </mxGeometry>
        </mxCell>
        <mxCell id="SeWNAzoTiZHXDxgDX6O6-6" value="Extends" style="endArrow=block;endSize=16;endFill=0;html=1;rounded=0;entryX=1;entryY=0.5;entryDx=0;entryDy=0;exitX=0;exitY=0.5;exitDx=0;exitDy=0;" edge="1" parent="1" source="SeWNAzoTiZHXDxgDX6O6-4" target="SeWNAzoTiZHXDxgDX6O6-2">
          <mxGeometry width="160" relative="1" as="geometry">
            <mxPoint x="870" y="420" as="sourcePoint" />
            <mxPoint x="1030" y="420" as="targetPoint" />
          </mxGeometry>
        </mxCell>
        <mxCell id="SeWNAzoTiZHXDxgDX6O6-7" value="&lt;div style=&quot;background-color: rgb(38, 38, 38); color: rgb(208, 208, 208);&quot;&gt;&lt;pre style=&quot;text-align: center; font-family: &amp;quot;JetBrains Mono&amp;quot;, monospace; font-size: 9.8pt;&quot;&gt;FMemoryWriter&lt;/pre&gt;&lt;/div&gt;&lt;hr size=&quot;1&quot; style=&quot;border-style:solid;&quot;&gt;&lt;p style=&quot;margin:0px;margin-left:4px;&quot;&gt;+ field1: Type&lt;br&gt;+ field2: Type&lt;/p&gt;&lt;hr size=&quot;1&quot; style=&quot;border-style:solid;&quot;&gt;&lt;p style=&quot;margin:0px;margin-left:4px;&quot;&gt;+ method1(Type): Type&lt;br&gt;+ method2(Type, Type): Type&lt;/p&gt;" style="verticalAlign=top;align=left;overflow=fill;html=1;whiteSpace=wrap;" vertex="1" parent="1">
          <mxGeometry x="1210" y="260" width="190" height="140" as="geometry" />
        </mxCell>
        <mxCell id="SeWNAzoTiZHXDxgDX6O6-8" value="Extends" style="endArrow=block;endSize=16;endFill=0;html=1;rounded=0;entryX=1;entryY=0.562;entryDx=0;entryDy=0;entryPerimeter=0;exitX=-0.003;exitY=0.582;exitDx=0;exitDy=0;exitPerimeter=0;" edge="1" parent="1" source="SeWNAzoTiZHXDxgDX6O6-7" target="SeWNAzoTiZHXDxgDX6O6-4">
          <mxGeometry width="160" relative="1" as="geometry">
            <mxPoint x="1190" y="390" as="sourcePoint" />
            <mxPoint x="1350" y="390" as="targetPoint" />
          </mxGeometry>
        </mxCell>
        <mxCell id="SeWNAzoTiZHXDxgDX6O6-9" value="&lt;div style=&quot;background-color: rgb(38, 38, 38); color: rgb(208, 208, 208);&quot;&gt;&lt;pre style=&quot;text-align: center; font-family: &amp;quot;JetBrains Mono&amp;quot;, monospace; font-size: 9.8pt;&quot;&gt;&lt;span style=&quot;color: rgb(193, 145, 255);&quot;&gt;TBufferArchive&lt;/span&gt;&lt;/pre&gt;&lt;/div&gt;&lt;hr size=&quot;1&quot; style=&quot;border-style:solid;&quot;&gt;&lt;p style=&quot;margin:0px;margin-left:4px;&quot;&gt;+ field1: Type&lt;br&gt;+ field2: Type&lt;/p&gt;&lt;hr size=&quot;1&quot; style=&quot;border-style:solid;&quot;&gt;&lt;p style=&quot;margin:0px;margin-left:4px;&quot;&gt;+ method1(Type): Type&lt;br&gt;+ method2(Type, Type): Type&lt;/p&gt;" style="verticalAlign=top;align=left;overflow=fill;html=1;whiteSpace=wrap;" vertex="1" parent="1">
          <mxGeometry x="1530" y="220" width="190" height="140" as="geometry" />
        </mxCell>
        <mxCell id="SeWNAzoTiZHXDxgDX6O6-10" value="Extends" style="endArrow=block;endSize=16;endFill=0;html=1;rounded=0;entryX=1.018;entryY=0.548;entryDx=0;entryDy=0;entryPerimeter=0;" edge="1" parent="1" source="SeWNAzoTiZHXDxgDX6O6-9" target="SeWNAzoTiZHXDxgDX6O6-7">
          <mxGeometry width="160" relative="1" as="geometry">
            <mxPoint x="1320" y="350" as="sourcePoint" />
            <mxPoint x="1480" y="350" as="targetPoint" />
          </mxGeometry>
        </mxCell>
        <mxCell id="SeWNAzoTiZHXDxgDX6O6-11" value="&lt;div style=&quot;background-color: rgb(38, 38, 38); color: rgb(208, 208, 208); line-height: 90%;&quot;&gt;&lt;pre style=&quot;text-align: center; line-height: 90%;&quot;&gt;&lt;font face=&quot;Helvetica&quot;&gt;FBufferArchive&lt;/font&gt;&lt;/pre&gt;&lt;pre style=&quot;text-align: center; line-height: 90%;&quot;&gt;&lt;font face=&quot;Helvetica&quot;&gt;可以直接调用来将内容&lt;/font&gt;序列化到文件中&lt;/pre&gt;&lt;/div&gt;&lt;hr size=&quot;1&quot; style=&quot;border-style:solid;&quot;&gt;&lt;p style=&quot;margin:0px;margin-left:4px;&quot;&gt;+ field1: Type&lt;br&gt;+ field2: Type&lt;/p&gt;&lt;hr size=&quot;1&quot; style=&quot;border-style:solid;&quot;&gt;&lt;p style=&quot;margin:0px;margin-left:4px;&quot;&gt;+ method1(Type): Type&lt;br&gt;+ method2(Type, Type): Type&lt;/p&gt;" style="verticalAlign=top;align=left;overflow=fill;html=1;whiteSpace=wrap;" vertex="1" parent="1">
          <mxGeometry x="1820" y="130" width="320" height="210" as="geometry" />
        </mxCell>
        <mxCell id="SeWNAzoTiZHXDxgDX6O6-12" value="Extends" style="endArrow=block;endSize=16;endFill=0;html=1;rounded=0;entryX=1;entryY=0.5;entryDx=0;entryDy=0;exitX=0;exitY=0.5;exitDx=0;exitDy=0;" edge="1" parent="1" source="SeWNAzoTiZHXDxgDX6O6-11" target="SeWNAzoTiZHXDxgDX6O6-9">
          <mxGeometry width="160" relative="1" as="geometry">
            <mxPoint x="1650" y="280" as="sourcePoint" />
            <mxPoint x="1810" y="280" as="targetPoint" />
          </mxGeometry>
        </mxCell>
        <mxCell id="SeWNAzoTiZHXDxgDX6O6-13" value="&lt;div style=&quot;background-color: rgb(38, 38, 38); color: rgb(208, 208, 208);&quot;&gt;&lt;pre style=&quot;text-align: center; font-family: &amp;quot;JetBrains Mono&amp;quot;, monospace; font-size: 9.8pt;&quot;&gt;FMemoryReader&lt;/pre&gt;&lt;pre style=&quot;text-align: center; font-family: &amp;quot;JetBrains Mono&amp;quot;, monospace; font-size: 9.8pt;&quot;&gt;读取二进制文件并进行解析&lt;/pre&gt;&lt;/div&gt;&lt;hr size=&quot;1&quot; style=&quot;border-style:solid;&quot;&gt;&lt;p style=&quot;margin:0px;margin-left:4px;&quot;&gt;+ field1: Type&lt;br&gt;+ field2: Type&lt;/p&gt;&lt;hr size=&quot;1&quot; style=&quot;border-style:solid;&quot;&gt;&lt;p style=&quot;margin:0px;margin-left:4px;&quot;&gt;+ method1(Type): Type&lt;br&gt;+ method2(Type, Type): Type&lt;/p&gt;" style="verticalAlign=top;align=left;overflow=fill;html=1;whiteSpace=wrap;" vertex="1" parent="1">
          <mxGeometry x="800" y="585" width="250" height="175" as="geometry" />
        </mxCell>
        <mxCell id="SeWNAzoTiZHXDxgDX6O6-14" value="Extends" style="endArrow=block;endSize=16;endFill=0;html=1;rounded=0;entryX=1;entryY=0.571;entryDx=0;entryDy=0;entryPerimeter=0;exitX=0.023;exitY=0.583;exitDx=0;exitDy=0;exitPerimeter=0;" edge="1" parent="1" source="SeWNAzoTiZHXDxgDX6O6-13" target="SeWNAzoTiZHXDxgDX6O6-2">
          <mxGeometry width="160" relative="1" as="geometry">
            <mxPoint x="860" y="570" as="sourcePoint" />
            <mxPoint x="1020" y="570" as="targetPoint" />
          </mxGeometry>
        </mxCell>
      </root>
    </mxGraphModel>
  </diagram>
</mxfile>
